<?xml version="1.0"?>
<svg width="269" height="40" xmlns="http://www.w3.org/2000/svg" xmlns:svg="http://www.w3.org/2000/svg">
 <g class="layer">
  <title>Layer 1</title>
  <path d="m8.41,1.12c0.96,0 1.41,0.38 1.41,1.21l0,21.92c0,5.83 1.92,7.53 8.5,7.53l25.88,0c0.96,0 1.41,0.39 1.41,1.21l0,5.39c0,0.83 -0.45,1.21 -1.41,1.21l-26.26,0c-12.91,0 -17.9,-3.96 -17.9,-14.51l0,-22.75c0,-0.83 0.51,-1.21 1.47,-1.21l6.9,0z" fill="#ffffff" id="svg_1" style="--darkreader-inline-fill: #181a1b;" transform="matrix(1 0 0 1 0 0)"/>
  <path d="m59.73,1.12c0.96,0 1.41,0.38 1.41,1.21l0,36.05c0,0.83 -0.45,1.21 -1.41,1.21l-6.9,0c-0.96,0 -1.47,-0.38 -1.47,-1.21l0,-36.05c0,-0.83 0.51,-1.21 1.47,-1.21l6.9,0z" fill="#ffffff" id="svg_2" style="--darkreader-inline-fill: #181a1b;" transform="matrix(1 0 0 1 0 0)"/>
  <path d="m81.01,1.12c4.09,0 4.99,0.44 7.41,3.24l23.78,26.82c0.19,0.28 0.45,0.38 0.83,0.38l0.57,0c0.32,0 0.52,-0.16 0.52,-0.54l0,-28.69c0,-0.83 0.44,-1.21 1.4,-1.21l6.71,0c0.96,0 1.41,0.38 1.41,1.21l0,31.55c0,4.45 -1.86,5.71 -5.75,5.71l-5.5,0c-3.9,0 -4.86,-0.32 -7.41,-3.24l-23.84,-26.82c-0.25,-0.28 -0.45,-0.39 -0.83,-0.39l-0.58,0c-0.38,0 -0.51,0.17 -0.51,0.55l0,28.69c0,0.83 -0.45,1.21 -1.41,1.21l-6.71,0c-0.96,0 -1.47,-0.38 -1.47,-1.21l0,-31.55c0,-4.45 1.86,-5.71 5.75,-5.71l5.62,0l0.01,0z" fill="#ffffff" id="svg_3" style="--darkreader-inline-fill: #181a1b;" transform="matrix(1 0 0 1 0 0)"/>
  <path d="m137.95,1.12c0.84,0 1.15,0.22 1.47,0.71l18.72,29.57c0.2,0.33 0.39,0.38 0.77,0.38l0.33,0c0.32,0 0.51,-0.05 0.7,-0.38l18.47,-29.57c0.32,-0.55 0.7,-0.71 1.47,-0.71l8.37,0c1.02,0 1.21,0.54 0.77,1.26l-20.96,33.04c-2.11,3.35 -4.03,4.18 -6.71,4.18l-3.71,0c-3.33,0 -5.18,-0.83 -7.35,-4.18l-21.22,-33.04c-0.45,-0.71 -0.25,-1.26 0.84,-1.26l8.05,0l-0.01,0z" fill="#ffffff" id="svg_4" style="--darkreader-inline-fill: #181a1b;" transform="matrix(1 0 0 1 0 0)"/>
  <path d="m202.82,1.12c0.96,0 1.41,0.38 1.41,1.21l0,36.05c0,0.83 -0.45,1.21 -1.41,1.21l-6.9,0c-0.96,0 -1.47,-0.38 -1.47,-1.21l0,-36.05c0,-0.83 0.51,-1.21 1.47,-1.21l6.9,0z" fill="#ffffff" id="svg_5" style="--darkreader-inline-fill: #181a1b;" transform="matrix(1 0 0 1 0 0)"/>
  <path clip-rule="evenodd" d="m267.09,0.02c0.61,0 0.96,0.2 1.02,0.56c0.07,0.35 -0.06,0.66 -0.36,0.92l-20.07,17.45l20.91,19.01c0.29,0.27 0.42,0.57 0.35,0.93c-0.06,0.35 -0.4,0.53 -1.01,0.53l-8.94,-0.02c-0.87,0 -1.42,-0.19 -2.09,-0.8c-1.53,-1.39 -15.51,-14.24 -15.51,-14.24l6.17,-5.42l-5.95,-5.28l14.92,-12.86c0.67,-0.57 1.21,-0.8 2.07,-0.8l8.49,0.02z" fill="#ffffff" fill-rule="evenodd" id="svg_6" style="--darkreader-inline-fill: #181a1b;"/>
  <path clip-rule="evenodd" d="m224.85,38.84c-0.72,0.65 -1.19,0.78 -2.15,0.78l-8.49,0c-0.56,0 -0.88,-0.18 -0.94,-0.53c-0.07,-0.35 0.06,-0.66 0.35,-0.93l21.47,-19.24l-19.37,-17.21c-0.28,-0.25 -0.38,-0.58 -0.33,-0.94c0.04,-0.35 0.37,-0.53 0.97,-0.53l8.95,0c0.86,0 1.43,0.19 2.09,0.79l14.22,13.05l5.43,4.86c-7.45,6.59 -14.82,13.25 -22.2,19.89l0,0.01z" fill="#F26921" fill-rule="evenodd" id="svg_7" style="--darkreader-inline-fill: #b5450b;"/>
 </g>
</svg>